<?xml version="1.0" encoding="UTF-8" standalone="no"?>
<!DOCTYPE svg PUBLIC "-//W3C//DTD SVG 1.1//EN"
 "http://www.w3.org/Graphics/SVG/1.1/DTD/svg11.dtd">
<!-- Generated by graphviz version 2.43.0 (0)
 -->
<!-- Title: Net Pages: 1 -->
<svg width="319pt" height="1329pt"
 viewBox="0.00 0.00 319.00 1328.89" xmlns="http://www.w3.org/2000/svg" xmlns:xlink="http://www.w3.org/1999/xlink">
<g id="graph0" class="graph" transform="scale(1 1) rotate(0) translate(4 1324.89)">
<title>Net</title>
<polygon fill="white" stroke="transparent" points="-4,4 -4,-1324.89 315,-1324.89 315,4 -4,4"/>
<text text-anchor="start" x="8" y="-1306.69" font-family="Times,serif" font-weight="bold" font-size="14.00">Net</text>
<text text-anchor="start" x="8" y="-1292.69" font-family="Times,serif" font-size="14.00">14 tensors total (27.8 MB)</text>
<text text-anchor="start" x="8" y="-1278.69" font-family="Times,serif" font-size="14.00">1199882 params (all trainable, 4.6 MB)</text>
<!-- input_1 -->
<g id="node1" class="node">
<title>input_1</title>
<ellipse fill="#98fb98" stroke="black" cx="155.5" cy="-35.36" rx="130.63" ry="35.21"/>
<text text-anchor="start" x="125.5" y="-46.16" font-family="Times,serif" font-weight="bold" font-size="14.00">input_1</text>
<text text-anchor="start" x="71" y="-32.16" font-family="Times,serif" font-size="14.00">50x1x28x28 (153.1 KB)</text>
<text text-anchor="start" x="123" y="-18.16" font-family="Times,serif" font-size="14.00">@input.x</text>
</g>
<!-- conv2d_1_1 -->
<g id="node2" class="node">
<title>conv2d_1_1</title>
<polygon fill="#d9d9d9" stroke="black" points="306,-170.71 5,-170.71 5,-106.71 306,-106.71 306,-170.71"/>
<text text-anchor="start" x="111" y="-156.51" font-family="Times,serif" font-weight="bold" font-size="14.00">conv2d_1_1</text>
<text text-anchor="start" x="73.5" y="-142.51" font-family="Times,serif" font-size="14.00">50x32x26x26 (4.1 MB)</text>
<text text-anchor="start" x="13" y="-128.51" font-family="Times,serif" font-size="14.00">params: weight: (32x1x3x3), bias: (x32)</text>
<text text-anchor="start" x="127" y="-114.51" font-family="Times,serif" font-size="14.00">@conv1</text>
</g>
<!-- input_1&#45;&gt;conv2d_1_1 -->
<g id="edge1" class="edge">
<title>input_1&#45;&gt;conv2d_1_1</title>
<path fill="none" stroke="black" d="M155.5,-70.95C155.5,-80.18 155.5,-90.21 155.5,-99.62"/>
<polygon fill="black" stroke="black" points="153.05,-99.67 155.5,-106.67 157.95,-99.67 153.05,-99.67"/>
</g>
<!-- relu_1_2 -->
<g id="node3" class="node">
<title>relu_1_2</title>
<ellipse fill="white" stroke="black" cx="155.5" cy="-232.17" rx="127.06" ry="25.41"/>
<text text-anchor="start" x="122.5" y="-235.97" font-family="Times,serif" font-weight="bold" font-size="14.00">relu_1_2</text>
<text text-anchor="start" x="73.5" y="-221.97" font-family="Times,serif" font-size="14.00">50x32x26x26 (4.1 MB)</text>
</g>
<!-- conv2d_1_1&#45;&gt;relu_1_2 -->
<g id="edge2" class="edge">
<title>conv2d_1_1&#45;&gt;relu_1_2</title>
<path fill="none" stroke="black" d="M155.5,-170.93C155.5,-180.07 155.5,-190.09 155.5,-199.27"/>
<polygon fill="black" stroke="black" points="153.05,-199.43 155.5,-206.43 157.95,-199.43 153.05,-199.43"/>
</g>
<!-- conv2d_2_3 -->
<g id="node4" class="node">
<title>conv2d_2_3</title>
<polygon fill="#d9d9d9" stroke="black" points="310.5,-357.62 0.5,-357.62 0.5,-293.62 310.5,-293.62 310.5,-357.62"/>
<text text-anchor="start" x="111" y="-343.42" font-family="Times,serif" font-weight="bold" font-size="14.00">conv2d_2_3</text>
<text text-anchor="start" x="73.5" y="-329.42" font-family="Times,serif" font-size="14.00">50x64x24x24 (7.0 MB)</text>
<text text-anchor="start" x="8.5" y="-315.42" font-family="Times,serif" font-size="14.00">params: weight: (64x32x3x3), bias: (x64)</text>
<text text-anchor="start" x="127" y="-301.42" font-family="Times,serif" font-size="14.00">@conv2</text>
</g>
<!-- relu_1_2&#45;&gt;conv2d_2_3 -->
<g id="edge3" class="edge">
<title>relu_1_2&#45;&gt;conv2d_2_3</title>
<path fill="none" stroke="black" d="M155.5,-257.68C155.5,-266.44 155.5,-276.55 155.5,-286.21"/>
<polygon fill="black" stroke="black" points="153.05,-286.48 155.5,-293.48 157.95,-286.48 153.05,-286.48"/>
</g>
<!-- relu_2_4 -->
<g id="node5" class="node">
<title>relu_2_4</title>
<ellipse fill="white" stroke="black" cx="155.5" cy="-419.08" rx="127.06" ry="25.41"/>
<text text-anchor="start" x="122.5" y="-422.88" font-family="Times,serif" font-weight="bold" font-size="14.00">relu_2_4</text>
<text text-anchor="start" x="73.5" y="-408.88" font-family="Times,serif" font-size="14.00">50x64x24x24 (7.0 MB)</text>
</g>
<!-- conv2d_2_3&#45;&gt;relu_2_4 -->
<g id="edge4" class="edge">
<title>conv2d_2_3&#45;&gt;relu_2_4</title>
<path fill="none" stroke="black" d="M155.5,-357.84C155.5,-366.99 155.5,-377 155.5,-386.18"/>
<polygon fill="black" stroke="black" points="153.05,-386.34 155.5,-393.34 157.95,-386.34 153.05,-386.34"/>
</g>
<!-- maxpool2d_1_5 -->
<g id="node6" class="node">
<title>maxpool2d_1_5</title>
<ellipse fill="white" stroke="black" cx="155.5" cy="-505.99" rx="127.06" ry="25.41"/>
<text text-anchor="start" x="96.5" y="-509.79" font-family="Times,serif" font-weight="bold" font-size="14.00">maxpool2d_1_5</text>
<text text-anchor="start" x="73.5" y="-495.79" font-family="Times,serif" font-size="14.00">50x64x12x12 (1.8 MB)</text>
</g>
<!-- relu_2_4&#45;&gt;maxpool2d_1_5 -->
<g id="edge5" class="edge">
<title>relu_2_4&#45;&gt;maxpool2d_1_5</title>
<path fill="none" stroke="black" d="M155.5,-444.64C155.5,-453.62 155.5,-463.9 155.5,-473.4"/>
<polygon fill="black" stroke="black" points="153.05,-473.49 155.5,-480.49 157.95,-473.49 153.05,-473.49"/>
</g>
<!-- dropout_1_6 -->
<g id="node7" class="node">
<title>dropout_1_6</title>
<polygon fill="white" stroke="black" points="245.5,-617.45 65.5,-617.45 65.5,-567.45 245.5,-567.45 245.5,-617.45"/>
<text text-anchor="start" x="107.5" y="-603.25" font-family="Times,serif" font-weight="bold" font-size="14.00">dropout_1_6</text>
<text text-anchor="start" x="73.5" y="-589.25" font-family="Times,serif" font-size="14.00">50x64x12x12 (1.8 MB)</text>
<text text-anchor="start" x="115.5" y="-575.25" font-family="Times,serif" font-size="14.00">@dropout1</text>
</g>
<!-- maxpool2d_1_5&#45;&gt;dropout_1_6 -->
<g id="edge6" class="edge">
<title>maxpool2d_1_5&#45;&gt;dropout_1_6</title>
<path fill="none" stroke="black" d="M155.5,-531.87C155.5,-540.7 155.5,-550.76 155.5,-560.06"/>
<polygon fill="black" stroke="black" points="153.05,-560.32 155.5,-567.32 157.95,-560.32 153.05,-560.32"/>
</g>
<!-- flatten_1_7 -->
<g id="node8" class="node">
<title>flatten_1_7</title>
<ellipse fill="white" stroke="black" cx="155.5" cy="-678.9" rx="103.48" ry="25.41"/>
<text text-anchor="start" x="112.5" y="-682.7" font-family="Times,serif" font-weight="bold" font-size="14.00">flatten_1_7</text>
<text text-anchor="start" x="90.5" y="-668.7" font-family="Times,serif" font-size="14.00">50x9216 (1.8 MB)</text>
</g>
<!-- dropout_1_6&#45;&gt;flatten_1_7 -->
<g id="edge7" class="edge">
<title>dropout_1_6&#45;&gt;flatten_1_7</title>
<path fill="none" stroke="black" d="M155.5,-617.87C155.5,-626.64 155.5,-636.65 155.5,-645.96"/>
<polygon fill="black" stroke="black" points="153.05,-646.24 155.5,-653.24 157.95,-646.24 153.05,-646.24"/>
</g>
<!-- linear_1_8 -->
<g id="node9" class="node">
<title>linear_1_8</title>
<polygon fill="#d9d9d9" stroke="black" points="311,-804.36 0,-804.36 0,-740.36 311,-740.36 311,-804.36"/>
<text text-anchor="start" x="115.5" y="-790.16" font-family="Times,serif" font-weight="bold" font-size="14.00">linear_1_8</text>
<text text-anchor="start" x="92.5" y="-776.16" font-family="Times,serif" font-size="14.00">50x128 (25.0 KB)</text>
<text text-anchor="start" x="8" y="-762.16" font-family="Times,serif" font-size="14.00">params: weight: (128x9216), bias: (x128)</text>
<text text-anchor="start" x="137" y="-748.16" font-family="Times,serif" font-size="14.00">@fc1</text>
</g>
<!-- flatten_1_7&#45;&gt;linear_1_8 -->
<g id="edge8" class="edge">
<title>flatten_1_7&#45;&gt;linear_1_8</title>
<path fill="none" stroke="black" d="M155.5,-704.41C155.5,-713.18 155.5,-723.29 155.5,-732.95"/>
<polygon fill="black" stroke="black" points="153.05,-733.22 155.5,-740.22 157.95,-733.22 153.05,-733.22"/>
</g>
<!-- relu_3_9 -->
<g id="node10" class="node">
<title>relu_3_9</title>
<ellipse fill="white" stroke="black" cx="155.5" cy="-865.81" rx="100.32" ry="25.41"/>
<text text-anchor="start" x="122.5" y="-869.61" font-family="Times,serif" font-weight="bold" font-size="14.00">relu_3_9</text>
<text text-anchor="start" x="92.5" y="-855.61" font-family="Times,serif" font-size="14.00">50x128 (25.0 KB)</text>
</g>
<!-- linear_1_8&#45;&gt;relu_3_9 -->
<g id="edge9" class="edge">
<title>linear_1_8&#45;&gt;relu_3_9</title>
<path fill="none" stroke="black" d="M155.5,-804.58C155.5,-813.72 155.5,-823.73 155.5,-832.92"/>
<polygon fill="black" stroke="black" points="153.05,-833.08 155.5,-840.08 157.95,-833.08 153.05,-833.08"/>
</g>
<!-- dropout_2_10 -->
<g id="node11" class="node">
<title>dropout_2_10</title>
<polygon fill="white" stroke="black" points="226.5,-977.27 84.5,-977.27 84.5,-927.27 226.5,-927.27 226.5,-977.27"/>
<text text-anchor="start" x="102.5" y="-963.07" font-family="Times,serif" font-weight="bold" font-size="14.00">dropout_2_10</text>
<text text-anchor="start" x="92.5" y="-949.07" font-family="Times,serif" font-size="14.00">50x128 (25.0 KB)</text>
<text text-anchor="start" x="115.5" y="-935.07" font-family="Times,serif" font-size="14.00">@dropout2</text>
</g>
<!-- relu_3_9&#45;&gt;dropout_2_10 -->
<g id="edge10" class="edge">
<title>relu_3_9&#45;&gt;dropout_2_10</title>
<path fill="none" stroke="black" d="M155.5,-891.7C155.5,-900.53 155.5,-910.58 155.5,-919.88"/>
<polygon fill="black" stroke="black" points="153.05,-920.15 155.5,-927.15 157.95,-920.15 153.05,-920.15"/>
</g>
<!-- linear_2_11 -->
<g id="node12" class="node">
<title>linear_2_11</title>
<polygon fill="#d9d9d9" stroke="black" points="297.5,-1077.27 13.5,-1077.27 13.5,-1013.27 297.5,-1013.27 297.5,-1077.27"/>
<text text-anchor="start" x="110.5" y="-1063.07" font-family="Times,serif" font-weight="bold" font-size="14.00">linear_2_11</text>
<text text-anchor="start" x="101.5" y="-1049.07" font-family="Times,serif" font-size="14.00">50x10 (2.0 KB)</text>
<text text-anchor="start" x="21.5" y="-1035.07" font-family="Times,serif" font-size="14.00">params: weight: (10x128), bias: (x10)</text>
<text text-anchor="start" x="137" y="-1021.07" font-family="Times,serif" font-size="14.00">@fc2</text>
</g>
<!-- dropout_2_10&#45;&gt;linear_2_11 -->
<g id="edge11" class="edge">
<title>dropout_2_10&#45;&gt;linear_2_11</title>
<path fill="none" stroke="black" d="M155.5,-977.66C155.5,-986.3 155.5,-996.25 155.5,-1005.77"/>
<polygon fill="black" stroke="black" points="153.05,-1005.95 155.5,-1012.95 157.95,-1005.95 153.05,-1005.95"/>
</g>
<!-- logsoftmax_1_12 -->
<g id="node13" class="node">
<title>logsoftmax_1_12</title>
<ellipse fill="white" stroke="black" cx="155.5" cy="-1138.72" rx="103.48" ry="25.41"/>
<text text-anchor="start" x="90.5" y="-1142.52" font-family="Times,serif" font-weight="bold" font-size="14.00">logsoftmax_1_12</text>
<text text-anchor="start" x="101.5" y="-1128.52" font-family="Times,serif" font-size="14.00">50x10 (2.0 KB)</text>
</g>
<!-- linear_2_11&#45;&gt;logsoftmax_1_12 -->
<g id="edge12" class="edge">
<title>linear_2_11&#45;&gt;logsoftmax_1_12</title>
<path fill="none" stroke="black" d="M155.5,-1077.49C155.5,-1086.63 155.5,-1096.64 155.5,-1105.83"/>
<polygon fill="black" stroke="black" points="153.05,-1105.99 155.5,-1112.99 157.95,-1105.99 153.05,-1105.99"/>
</g>
<!-- output_1 -->
<g id="node14" class="node">
<title>output_1</title>
<ellipse fill="#ff9999" stroke="black" cx="155.5" cy="-1235.54" rx="87.86" ry="35.21"/>
<text text-anchor="start" x="120.5" y="-1246.34" font-family="Times,serif" font-weight="bold" font-size="14.00">output_1</text>
<text text-anchor="start" x="101.5" y="-1232.34" font-family="Times,serif" font-size="14.00">50x10 (2.0 KB)</text>
<text text-anchor="start" x="124.5" y="-1218.34" font-family="Times,serif" font-size="14.00">@output</text>
</g>
<!-- logsoftmax_1_12&#45;&gt;output_1 -->
<g id="edge13" class="edge">
<title>logsoftmax_1_12&#45;&gt;output_1</title>
<path fill="none" stroke="black" d="M155.5,-1164.64C155.5,-1173.29 155.5,-1183.25 155.5,-1192.89"/>
<polygon fill="black" stroke="black" points="153.05,-1193.17 155.5,-1200.17 157.95,-1193.17 153.05,-1193.17"/>
</g>
</g>
</svg>