<?xml version="1.0" encoding="UTF-8" standalone="no"?>
<!DOCTYPE svg PUBLIC "-//W3C//DTD SVG 1.1//EN"
 "http://www.w3.org/Graphics/SVG/1.1/DTD/svg11.dtd">
<!-- Generated by graphviz version 2.43.0 (0)
 -->
<!-- Title: Net Pages: 1 -->
<svg width="270pt" height="1329pt"
 viewBox="0.00 0.00 269.63 1328.89" xmlns="http://www.w3.org/2000/svg" xmlns:xlink="http://www.w3.org/1999/xlink">
<g id="graph0" class="graph" transform="scale(1 1) rotate(0) translate(4 1324.89)">
<title>Net</title>
<polygon fill="white" stroke="transparent" points="-4,4 -4,-1324.89 265.63,-1324.89 265.63,4 -4,4"/>
<text text-anchor="start" x="8" y="-1306.69" font-family="Times,serif" font-weight="bold" font-size="14.00">Net</text>
<text text-anchor="start" x="8" y="-1292.69" font-family="Times,serif" font-size="14.00">14 tensors total (27.8 MB)</text>
<text text-anchor="start" x="8" y="-1278.69" font-family="Times,serif" font-size="14.00">1199882 params total (4.6 MB)</text>
<!-- input_1 -->
<g id="node1" class="node">
<title>input_1</title>
<ellipse fill="#98fb98" stroke="black" cx="130.81" cy="-35.36" rx="130.63" ry="35.21"/>
<text text-anchor="start" x="100.81" y="-46.16" font-family="Times,serif" font-weight="bold" font-size="14.00">input_1</text>
<text text-anchor="start" x="46.31" y="-32.16" font-family="Times,serif" font-size="14.00">50x1x28x28 (153.3 KB)</text>
<text text-anchor="start" x="98.31" y="-18.16" font-family="Times,serif" font-size="14.00">@input.x</text>
</g>
<!-- conv2d_1_1 -->
<g id="node2" class="node">
<title>conv2d_1_1</title>
<polygon fill="#e6e6e6" stroke="black" points="222.81,-170.71 38.81,-170.71 38.81,-106.71 222.81,-106.71 222.81,-170.71"/>
<text text-anchor="start" x="86.31" y="-156.51" font-family="Times,serif" font-weight="bold" font-size="14.00">conv2d_1_1</text>
<text text-anchor="start" x="48.81" y="-142.51" font-family="Times,serif" font-size="14.00">50x32x26x26 (4.1 MB)</text>
<text text-anchor="start" x="46.81" y="-128.51" font-family="Times,serif" font-size="14.00">params: 32x1x3x3, x32</text>
<text text-anchor="start" x="102.31" y="-114.51" font-family="Times,serif" font-size="14.00">@conv1</text>
</g>
<!-- input_1&#45;&gt;conv2d_1_1 -->
<g id="edge1" class="edge">
<title>input_1&#45;&gt;conv2d_1_1</title>
<path fill="none" stroke="black" d="M130.81,-70.95C130.81,-80.18 130.81,-90.21 130.81,-99.62"/>
<polygon fill="black" stroke="black" points="128.36,-99.67 130.81,-106.67 133.26,-99.67 128.36,-99.67"/>
</g>
<!-- relu_1_2 -->
<g id="node3" class="node">
<title>relu_1_2</title>
<ellipse fill="white" stroke="black" cx="130.81" cy="-232.17" rx="127.06" ry="25.41"/>
<text text-anchor="start" x="97.81" y="-235.97" font-family="Times,serif" font-weight="bold" font-size="14.00">relu_1_2</text>
<text text-anchor="start" x="48.81" y="-221.97" font-family="Times,serif" font-size="14.00">50x32x26x26 (4.1 MB)</text>
</g>
<!-- conv2d_1_1&#45;&gt;relu_1_2 -->
<g id="edge2" class="edge">
<title>conv2d_1_1&#45;&gt;relu_1_2</title>
<path fill="none" stroke="black" d="M130.81,-170.93C130.81,-180.07 130.81,-190.09 130.81,-199.27"/>
<polygon fill="black" stroke="black" points="128.36,-199.43 130.81,-206.43 133.26,-199.43 128.36,-199.43"/>
</g>
<!-- conv2d_2_3 -->
<g id="node4" class="node">
<title>conv2d_2_3</title>
<polygon fill="#e6e6e6" stroke="black" points="227.31,-357.62 34.31,-357.62 34.31,-293.62 227.31,-293.62 227.31,-357.62"/>
<text text-anchor="start" x="86.31" y="-343.42" font-family="Times,serif" font-weight="bold" font-size="14.00">conv2d_2_3</text>
<text text-anchor="start" x="48.81" y="-329.42" font-family="Times,serif" font-size="14.00">50x64x24x24 (7.0 MB)</text>
<text text-anchor="start" x="42.31" y="-315.42" font-family="Times,serif" font-size="14.00">params: 64x32x3x3, x64</text>
<text text-anchor="start" x="102.31" y="-301.42" font-family="Times,serif" font-size="14.00">@conv2</text>
</g>
<!-- relu_1_2&#45;&gt;conv2d_2_3 -->
<g id="edge3" class="edge">
<title>relu_1_2&#45;&gt;conv2d_2_3</title>
<path fill="none" stroke="black" d="M130.81,-257.68C130.81,-266.44 130.81,-276.55 130.81,-286.21"/>
<polygon fill="black" stroke="black" points="128.36,-286.48 130.81,-293.48 133.26,-286.48 128.36,-286.48"/>
</g>
<!-- relu_2_4 -->
<g id="node5" class="node">
<title>relu_2_4</title>
<ellipse fill="white" stroke="black" cx="130.81" cy="-419.08" rx="127.06" ry="25.41"/>
<text text-anchor="start" x="97.81" y="-422.88" font-family="Times,serif" font-weight="bold" font-size="14.00">relu_2_4</text>
<text text-anchor="start" x="48.81" y="-408.88" font-family="Times,serif" font-size="14.00">50x64x24x24 (7.0 MB)</text>
</g>
<!-- conv2d_2_3&#45;&gt;relu_2_4 -->
<g id="edge4" class="edge">
<title>conv2d_2_3&#45;&gt;relu_2_4</title>
<path fill="none" stroke="black" d="M130.81,-357.84C130.81,-366.99 130.81,-377 130.81,-386.18"/>
<polygon fill="black" stroke="black" points="128.36,-386.34 130.81,-393.34 133.26,-386.34 128.36,-386.34"/>
</g>
<!-- maxpool2d_1_5 -->
<g id="node6" class="node">
<title>maxpool2d_1_5</title>
<ellipse fill="white" stroke="black" cx="130.81" cy="-505.99" rx="127.06" ry="25.41"/>
<text text-anchor="start" x="71.81" y="-509.79" font-family="Times,serif" font-weight="bold" font-size="14.00">maxpool2d_1_5</text>
<text text-anchor="start" x="48.81" y="-495.79" font-family="Times,serif" font-size="14.00">50x64x12x12 (1.8 MB)</text>
</g>
<!-- relu_2_4&#45;&gt;maxpool2d_1_5 -->
<g id="edge5" class="edge">
<title>relu_2_4&#45;&gt;maxpool2d_1_5</title>
<path fill="none" stroke="black" d="M130.81,-444.64C130.81,-453.62 130.81,-463.9 130.81,-473.4"/>
<polygon fill="black" stroke="black" points="128.36,-473.49 130.81,-480.49 133.26,-473.49 128.36,-473.49"/>
</g>
<!-- dropout_1_6 -->
<g id="node7" class="node">
<title>dropout_1_6</title>
<polygon fill="white" stroke="black" points="220.81,-617.45 40.81,-617.45 40.81,-567.45 220.81,-567.45 220.81,-617.45"/>
<text text-anchor="start" x="82.81" y="-603.25" font-family="Times,serif" font-weight="bold" font-size="14.00">dropout_1_6</text>
<text text-anchor="start" x="48.81" y="-589.25" font-family="Times,serif" font-size="14.00">50x64x12x12 (1.8 MB)</text>
<text text-anchor="start" x="90.81" y="-575.25" font-family="Times,serif" font-size="14.00">@dropout1</text>
</g>
<!-- maxpool2d_1_5&#45;&gt;dropout_1_6 -->
<g id="edge6" class="edge">
<title>maxpool2d_1_5&#45;&gt;dropout_1_6</title>
<path fill="none" stroke="black" d="M130.81,-531.87C130.81,-540.7 130.81,-550.76 130.81,-560.06"/>
<polygon fill="black" stroke="black" points="128.36,-560.32 130.81,-567.32 133.26,-560.32 128.36,-560.32"/>
</g>
<!-- flatten_1_7 -->
<g id="node8" class="node">
<title>flatten_1_7</title>
<ellipse fill="white" stroke="black" cx="130.81" cy="-678.9" rx="103.48" ry="25.41"/>
<text text-anchor="start" x="87.81" y="-682.7" font-family="Times,serif" font-weight="bold" font-size="14.00">flatten_1_7</text>
<text text-anchor="start" x="65.81" y="-668.7" font-family="Times,serif" font-size="14.00">50x9216 (1.8 MB)</text>
</g>
<!-- dropout_1_6&#45;&gt;flatten_1_7 -->
<g id="edge7" class="edge">
<title>dropout_1_6&#45;&gt;flatten_1_7</title>
<path fill="none" stroke="black" d="M130.81,-617.87C130.81,-626.64 130.81,-636.65 130.81,-645.96"/>
<polygon fill="black" stroke="black" points="128.36,-646.24 130.81,-653.24 133.26,-646.24 128.36,-646.24"/>
</g>
<!-- linear_1_8 -->
<g id="node9" class="node">
<title>linear_1_8</title>
<polygon fill="#e6e6e6" stroke="black" points="227.81,-804.36 33.81,-804.36 33.81,-740.36 227.81,-740.36 227.81,-804.36"/>
<text text-anchor="start" x="90.81" y="-790.16" font-family="Times,serif" font-weight="bold" font-size="14.00">linear_1_8</text>
<text text-anchor="start" x="67.81" y="-776.16" font-family="Times,serif" font-size="14.00">50x128 (25.1 KB)</text>
<text text-anchor="start" x="41.81" y="-762.16" font-family="Times,serif" font-size="14.00">params: 128x9216, x128</text>
<text text-anchor="start" x="112.31" y="-748.16" font-family="Times,serif" font-size="14.00">@fc1</text>
</g>
<!-- flatten_1_7&#45;&gt;linear_1_8 -->
<g id="edge8" class="edge">
<title>flatten_1_7&#45;&gt;linear_1_8</title>
<path fill="none" stroke="black" d="M130.81,-704.41C130.81,-713.18 130.81,-723.29 130.81,-732.95"/>
<polygon fill="black" stroke="black" points="128.36,-733.22 130.81,-740.22 133.26,-733.22 128.36,-733.22"/>
</g>
<!-- relu_3_9 -->
<g id="node10" class="node">
<title>relu_3_9</title>
<ellipse fill="white" stroke="black" cx="130.81" cy="-865.81" rx="100.32" ry="25.41"/>
<text text-anchor="start" x="97.81" y="-869.61" font-family="Times,serif" font-weight="bold" font-size="14.00">relu_3_9</text>
<text text-anchor="start" x="67.81" y="-855.61" font-family="Times,serif" font-size="14.00">50x128 (25.1 KB)</text>
</g>
<!-- linear_1_8&#45;&gt;relu_3_9 -->
<g id="edge9" class="edge">
<title>linear_1_8&#45;&gt;relu_3_9</title>
<path fill="none" stroke="black" d="M130.81,-804.58C130.81,-813.72 130.81,-823.73 130.81,-832.92"/>
<polygon fill="black" stroke="black" points="128.36,-833.08 130.81,-840.08 133.26,-833.08 128.36,-833.08"/>
</g>
<!-- dropout_2_10 -->
<g id="node11" class="node">
<title>dropout_2_10</title>
<polygon fill="white" stroke="black" points="201.81,-977.27 59.81,-977.27 59.81,-927.27 201.81,-927.27 201.81,-977.27"/>
<text text-anchor="start" x="77.81" y="-963.07" font-family="Times,serif" font-weight="bold" font-size="14.00">dropout_2_10</text>
<text text-anchor="start" x="67.81" y="-949.07" font-family="Times,serif" font-size="14.00">50x128 (25.1 KB)</text>
<text text-anchor="start" x="90.81" y="-935.07" font-family="Times,serif" font-size="14.00">@dropout2</text>
</g>
<!-- relu_3_9&#45;&gt;dropout_2_10 -->
<g id="edge10" class="edge">
<title>relu_3_9&#45;&gt;dropout_2_10</title>
<path fill="none" stroke="black" d="M130.81,-891.7C130.81,-900.53 130.81,-910.58 130.81,-919.88"/>
<polygon fill="black" stroke="black" points="128.36,-920.15 130.81,-927.15 133.26,-920.15 128.36,-920.15"/>
</g>
<!-- linear_2_11 -->
<g id="node12" class="node">
<title>linear_2_11</title>
<polygon fill="#e6e6e6" stroke="black" points="214.31,-1077.27 47.31,-1077.27 47.31,-1013.27 214.31,-1013.27 214.31,-1077.27"/>
<text text-anchor="start" x="85.81" y="-1063.07" font-family="Times,serif" font-weight="bold" font-size="14.00">linear_2_11</text>
<text text-anchor="start" x="76.81" y="-1049.07" font-family="Times,serif" font-size="14.00">50x10 (2.1 KB)</text>
<text text-anchor="start" x="55.31" y="-1035.07" font-family="Times,serif" font-size="14.00">params: 10x128, x10</text>
<text text-anchor="start" x="112.31" y="-1021.07" font-family="Times,serif" font-size="14.00">@fc2</text>
</g>
<!-- dropout_2_10&#45;&gt;linear_2_11 -->
<g id="edge11" class="edge">
<title>dropout_2_10&#45;&gt;linear_2_11</title>
<path fill="none" stroke="black" d="M130.81,-977.66C130.81,-986.3 130.81,-996.25 130.81,-1005.77"/>
<polygon fill="black" stroke="black" points="128.36,-1005.95 130.81,-1012.95 133.26,-1005.95 128.36,-1005.95"/>
</g>
<!-- logsoftmax_1_12 -->
<g id="node13" class="node">
<title>logsoftmax_1_12</title>
<ellipse fill="white" stroke="black" cx="130.81" cy="-1138.72" rx="103.48" ry="25.41"/>
<text text-anchor="start" x="65.81" y="-1142.52" font-family="Times,serif" font-weight="bold" font-size="14.00">logsoftmax_1_12</text>
<text text-anchor="start" x="76.81" y="-1128.52" font-family="Times,serif" font-size="14.00">50x10 (2.1 KB)</text>
</g>
<!-- linear_2_11&#45;&gt;logsoftmax_1_12 -->
<g id="edge12" class="edge">
<title>linear_2_11&#45;&gt;logsoftmax_1_12</title>
<path fill="none" stroke="black" d="M130.81,-1077.49C130.81,-1086.63 130.81,-1096.64 130.81,-1105.83"/>
<polygon fill="black" stroke="black" points="128.36,-1105.99 130.81,-1112.99 133.26,-1105.99 128.36,-1105.99"/>
</g>
<!-- output_1 -->
<g id="node14" class="node">
<title>output_1</title>
<ellipse fill="#ff9999" stroke="black" cx="130.81" cy="-1235.54" rx="87.86" ry="35.21"/>
<text text-anchor="start" x="95.81" y="-1246.34" font-family="Times,serif" font-weight="bold" font-size="14.00">output_1</text>
<text text-anchor="start" x="76.81" y="-1232.34" font-family="Times,serif" font-size="14.00">50x10 (2.1 KB)</text>
<text text-anchor="start" x="99.81" y="-1218.34" font-family="Times,serif" font-size="14.00">@output</text>
</g>
<!-- logsoftmax_1_12&#45;&gt;output_1 -->
<g id="edge13" class="edge">
<title>logsoftmax_1_12&#45;&gt;output_1</title>
<path fill="none" stroke="black" d="M130.81,-1164.64C130.81,-1173.29 130.81,-1183.25 130.81,-1192.89"/>
<polygon fill="black" stroke="black" points="128.36,-1193.17 130.81,-1200.17 133.26,-1193.17 128.36,-1193.17"/>
</g>
</g>
</svg>